<?xml version="1.0" encoding="UTF-8"?><svg xmlns="http://www.w3.org/2000/svg" xmlns:xlink="http://www.w3.org/1999/xlink" width="375pt" zoomAndPan="magnify" viewBox="0 0 375 374.999991" height="374.999991pt" preserveAspectRatio="xMidYMid meet" version="1.2"><g xml:id="surface1" id="surface1"><path style=" stroke:none;fill-rule:nonzero;fill:rgb(40.779114%,37.649536%,48.629761%);fill-opacity:1;" d="M 68.910156 81.539062 L 159.425781 48.566406 L 163.851562 60.714844 L 73.335938 93.6875 Z M 68.910156 81.539062 "/><path style=" stroke:none;fill-rule:nonzero;fill:rgb(40.779114%,37.649536%,48.629761%);fill-opacity:1;" d="M 202.324219 69.226562 L 211.464844 60.082031 L 314.914062 163.527344 L 305.769531 172.671875 Z M 202.324219 69.226562 "/><path style=" stroke:none;fill-rule:nonzero;fill:rgb(40.779114%,37.649536%,48.629761%);fill-opacity:1;" d="M 218.9375 178.859375 L 220.699219 166.058594 L 298.285156 176.722656 L 296.527344 189.527344 Z M 218.9375 178.859375 "/><path style=" stroke:none;fill-rule:nonzero;fill:rgb(40.779114%,37.649536%,48.629761%);fill-opacity:1;" d="M 61.765625 112.480469 L 67.550781 100.914062 L 171 152.640625 L 165.21875 164.207031 Z M 61.765625 112.480469 "/><path style=" stroke:none;fill-rule:nonzero;fill:rgb(40.779114%,37.649536%,48.629761%);fill-opacity:1;" d="M 66.039062 282.710938 L 71.832031 271.144531 L 164.441406 317.5 L 158.652344 329.070312 Z M 66.039062 282.710938 "/><path style=" stroke:none;fill-rule:nonzero;fill:rgb(40.779114%,37.649536%,48.629761%);fill-opacity:1;" d="M 181.035156 193.964844 L 193.964844 193.964844 L 193.964844 303.878906 L 181.035156 303.878906 Z M 181.035156 193.964844 "/><path style=" stroke:none;fill-rule:nonzero;fill:rgb(40.779114%,37.649536%,48.629761%);fill-opacity:1;" d="M 56.472656 235.679688 L 165.4375 67.65625 L 176.285156 74.691406 L 67.324219 242.714844 Z M 56.472656 235.679688 "/><path style=" stroke:none;fill-rule:nonzero;fill:rgb(40.779114%,37.649536%,48.629761%);fill-opacity:1;" d="M 204.484375 309.085938 L 306.535156 202.417969 L 315.878906 211.359375 L 213.828125 318.023438 Z M 204.484375 309.085938 "/><path style=" stroke:none;fill-rule:nonzero;fill:rgb(40.779114%,37.649536%,48.629761%);fill-opacity:1;" d="M 56.160156 127.894531 L 67.277344 121.289062 L 173.808594 300.585938 L 162.691406 307.191406 Z M 56.160156 127.894531 "/><path style=" stroke:none;fill-rule:nonzero;fill:rgb(30.589294%,60.778809%,72.549438%);fill-opacity:1;" d="M 90.515625 265.085938 C 90.515625 272.390625 88.835938 279.246094 85.734375 285.324219 C 78.363281 300.195312 62.972656 310.34375 45.257812 310.34375 C 20.238281 310.34375 0 290.109375 0 265.085938 C 0 240.066406 20.238281 219.828125 45.257812 219.828125 C 54.375 219.828125 62.78125 222.476562 69.828125 227.070312 C 82.304688 235.152344 90.515625 249.117188 90.515625 265.085938 Z M 90.515625 265.085938 "/><path style=" stroke:none;fill-rule:nonzero;fill:rgb(56.858826%,79.60968%,84.309387%);fill-opacity:1;" d="M 221.832031 300.324219 C 228.683594 308.210938 232.757812 318.492188 232.757812 329.742188 C 232.757812 354.761719 212.523438 375 187.5 375 C 162.476562 375 142.242188 354.761719 142.242188 329.742188 C 142.242188 324.503906 143.148438 319.527344 144.761719 314.871094 C 147.867188 305.753906 153.816406 298.058594 161.574219 292.628906 C 168.878906 287.457031 177.800781 284.484375 187.5 284.484375 C 201.273438 284.484375 213.621094 290.625 221.832031 300.324219 Z M 221.832031 300.324219 "/><path style=" stroke:none;fill-rule:nonzero;fill:rgb(100%,81.568909%,52.549744%);fill-opacity:1;" d="M 329.742188 142.242188 C 354.761719 142.242188 375 162.476562 375 187.5 C 375 212.523438 354.761719 232.757812 329.742188 232.757812 C 317.585938 232.757812 306.59375 228.039062 298.511719 220.152344 C 289.847656 212.003906 284.484375 200.367188 284.484375 187.5 C 284.484375 185.429688 284.613281 183.425781 284.933594 181.421875 C 286.226562 171.335938 290.882812 162.347656 297.738281 155.496094 C 305.949219 147.285156 317.199219 142.242188 329.742188 142.242188 Z M 329.742188 142.242188 "/><path style=" stroke:none;fill-rule:nonzero;fill:rgb(92.939758%,39.608765%,44.309998%);fill-opacity:1;" d="M 232.304688 174.179688 C 229.398438 196.292969 210.453125 213.363281 187.5 213.363281 C 162.476562 213.363281 142.242188 193.125 142.242188 168.101562 C 142.242188 160.796875 143.921875 153.945312 147.027344 147.867188 C 154.398438 132.996094 169.785156 122.84375 187.5 122.84375 C 212.523438 122.84375 232.757812 143.082031 232.757812 168.101562 C 232.757812 170.171875 232.628906 172.175781 232.304688 174.179688 Z M 232.304688 174.179688 "/><path style=" stroke:none;fill-rule:nonzero;fill:rgb(96.469116%,58.039856%,53.729248%);fill-opacity:1;" d="M 187.5 0 C 212.523438 0 232.757812 20.238281 232.757812 45.257812 C 232.757812 57.800781 227.714844 69.050781 219.503906 77.261719 C 211.292969 85.472656 200.042969 90.515625 187.5 90.515625 C 178.382812 90.515625 169.976562 87.867188 162.929688 83.277344 C 154.71875 77.972656 148.320312 70.085938 144.957031 60.710938 C 143.210938 55.925781 142.242188 50.691406 142.242188 45.257812 C 142.242188 20.238281 162.476562 0 187.5 0 Z M 187.5 0 "/><path style=" stroke:none;fill-rule:nonzero;fill:rgb(56.858826%,79.60968%,84.309387%);fill-opacity:1;" d="M 87.800781 81.53125 C 89.546875 86.316406 90.515625 91.550781 90.515625 96.984375 C 90.515625 104.289062 88.835938 111.140625 85.734375 117.21875 C 81.851562 124.976562 75.839844 131.445312 68.40625 135.839844 C 61.679688 139.914062 53.726562 142.242188 45.257812 142.242188 C 20.238281 142.242188 0 122.003906 0 96.984375 C 0 71.960938 20.238281 51.722656 45.257812 51.722656 C 64.847656 51.722656 81.464844 64.136719 87.800781 81.53125 Z M 87.800781 81.53125 "/></g></svg>